<svg width="32" height="32" viewBox="0 0 32 32" fill="none" xmlns="http://www.w3.org/2000/svg">
  <rect width="32" height="32" rx="6" fill="url(#gradient)"/>
  <path d="M10 10C10 10 10 12 12 12C12 12 14 12 14 14C14 14 14 16 16 16C16 16 18 16 18 14C18 14 18 12 20 12C20 12 22 12 22 10C22 10 22 8 20 8C20 8 18 8 18 10C18 10 16 10 16 8C16 8 14 8 14 10C14 10 12 10 12 8C12 8 10 8 10 10Z" fill="white" fill-opacity="0.95"/>
  <path d="M22 22C22 22 22 20 20 20C20 20 18 20 18 18C18 18 18 16 16 16C16 16 14 16 14 18C14 18 14 20 12 20C12 20 10 20 10 22C10 22 10 24 12 24C12 24 14 24 14 22C14 22 16 22 16 24C16 24 18 24 18 22C18 22 20 22 20 24C20 24 22 24 22 22Z" fill="white" fill-opacity="0.95"/>
  <path d="M10 22L22 10" stroke="white" stroke-width="1.5" stroke-linecap="round"/>
  <path d="M22 22L10 10" stroke="white" stroke-width="1.5" stroke-linecap="round"/>
  <defs>
    <linearGradient id="gradient" x1="0" y1="0" x2="32" y2="32" gradientUnits="userSpaceOnUse">
      <stop offset="0%" stop-color="#2563EB"/>
      <stop offset="100%" stop-color="#9333EA"/>
    </linearGradient>
  </defs>
</svg>

